<mxfile host="app.diagrams.net" modified="2024-03-20T14:27:15.095Z" agent="Mozilla/5.0 (Windows NT 10.0; Win64; x64) AppleWebKit/537.36 (KHTML, like Gecko) Chrome/122.0.0.0 Safari/537.36" etag="BOn06INEe7PkKJ3zEONF" version="24.0.7" type="device" pages="2">
  <diagram name="Contexto" id="1iT5tyjKOo6wKRUe-Uue">
    <mxGraphModel dx="840" dy="452" grid="1" gridSize="10" guides="1" tooltips="1" connect="1" arrows="1" fold="1" page="1" pageScale="1" pageWidth="827" pageHeight="1169" math="0" shadow="0">
      <root>
        <mxCell id="0" />
        <mxCell id="1" parent="0" />
        <mxCell id="kfNd2m6IobNvLO3QgIsy-5" style="edgeStyle=orthogonalEdgeStyle;rounded=0;orthogonalLoop=1;jettySize=auto;html=1;" parent="1" source="kfNd2m6IobNvLO3QgIsy-1" edge="1">
          <mxGeometry relative="1" as="geometry">
            <mxPoint x="220" y="350" as="targetPoint" />
          </mxGeometry>
        </mxCell>
        <mxCell id="kfNd2m6IobNvLO3QgIsy-6" value="Realiza Envio de uma&amp;nbsp;&lt;div&gt;nova nominação&amp;nbsp;&lt;br&gt;entrada ou saida&lt;/div&gt;" style="edgeLabel;html=1;align=center;verticalAlign=middle;resizable=0;points=[];" parent="kfNd2m6IobNvLO3QgIsy-5" vertex="1" connectable="0">
          <mxGeometry x="-0.2202" relative="1" as="geometry">
            <mxPoint y="-1" as="offset" />
          </mxGeometry>
        </mxCell>
        <object placeholders="1" c4Name="Transportador" c4Type="Client" c4Description="Frontand-transportador" label="&lt;font style=&quot;font-size: 16px&quot;&gt;&lt;b&gt;%c4Name%&lt;/b&gt;&lt;/font&gt;&lt;div&gt;[%c4Type%]&lt;/div&gt;&lt;br&gt;&lt;div&gt;&lt;font style=&quot;font-size: 11px&quot;&gt;&lt;font color=&quot;#cccccc&quot;&gt;%c4Description%&lt;/font&gt;&lt;/div&gt;" id="kfNd2m6IobNvLO3QgIsy-1">
          <mxCell style="html=1;fontSize=11;dashed=0;whiteSpace=wrap;fillColor=#083F75;strokeColor=#06315C;fontColor=#ffffff;shape=mxgraph.c4.person2;align=center;metaEdit=1;points=[[0.5,0,0],[1,0.5,0],[1,0.75,0],[0.75,1,0],[0.5,1,0],[0.25,1,0],[0,0.75,0],[0,0.5,0]];resizable=0;" parent="1" vertex="1">
            <mxGeometry x="120" y="90" width="200" height="180" as="geometry" />
          </mxCell>
        </object>
        <object placeholders="1" c4Name="Carregador" c4Type="External Client" c4Description="FrontAnd Carregador" label="&lt;font style=&quot;font-size: 16px&quot;&gt;&lt;b&gt;%c4Name%&lt;/b&gt;&lt;/font&gt;&lt;div&gt;[%c4Type%]&lt;/div&gt;&lt;br&gt;&lt;div&gt;&lt;font style=&quot;font-size: 11px&quot;&gt;&lt;font color=&quot;#cccccc&quot;&gt;%c4Description%&lt;/font&gt;&lt;/div&gt;" id="kfNd2m6IobNvLO3QgIsy-2">
          <mxCell style="html=1;fontSize=11;dashed=0;whiteSpace=wrap;fillColor=#6C6477;strokeColor=#4D4D4D;fontColor=#ffffff;shape=mxgraph.c4.person2;align=center;metaEdit=1;points=[[0.5,0,0],[1,0.5,0],[1,0.75,0],[0.75,1,0],[0.5,1,0],[0.25,1,0],[0,0.75,0],[0,0.5,0]];resizable=0;" parent="1" vertex="1">
            <mxGeometry x="424" y="90" width="200" height="180" as="geometry" />
          </mxCell>
        </object>
        <mxCell id="kfNd2m6IobNvLO3QgIsy-21" style="edgeStyle=orthogonalEdgeStyle;rounded=0;orthogonalLoop=1;jettySize=auto;html=1;exitX=0.25;exitY=1;exitDx=0;exitDy=0;exitPerimeter=0;" parent="1" source="kfNd2m6IobNvLO3QgIsy-4" target="kfNd2m6IobNvLO3QgIsy-11" edge="1">
          <mxGeometry relative="1" as="geometry">
            <mxPoint x="160" y="910" as="targetPoint" />
            <Array as="points">
              <mxPoint x="160" y="570" />
              <mxPoint x="160" y="570" />
            </Array>
          </mxGeometry>
        </mxCell>
        <mxCell id="kfNd2m6IobNvLO3QgIsy-22" value="Grava Nominacao&amp;nbsp;&lt;div&gt;no banco de dados&lt;/div&gt;" style="edgeLabel;html=1;align=center;verticalAlign=middle;resizable=0;points=[];" parent="kfNd2m6IobNvLO3QgIsy-21" vertex="1" connectable="0">
          <mxGeometry x="-0.524" y="3" relative="1" as="geometry">
            <mxPoint as="offset" />
          </mxGeometry>
        </mxCell>
        <object placeholders="1" c4Name="Nominacao_v2" c4Type="Software System" c4Description="Nominação versão 2" label="&lt;font style=&quot;font-size: 16px&quot;&gt;&lt;b&gt;%c4Name%&lt;/b&gt;&lt;/font&gt;&lt;div&gt;[%c4Type%]&lt;/div&gt;&lt;br&gt;&lt;div&gt;&lt;font style=&quot;font-size: 11px&quot;&gt;&lt;font color=&quot;#cccccc&quot;&gt;%c4Description%&lt;/font&gt;&lt;/div&gt;" id="kfNd2m6IobNvLO3QgIsy-4">
          <mxCell style="rounded=1;whiteSpace=wrap;html=1;labelBackgroundColor=none;fillColor=#1061B0;fontColor=#ffffff;align=center;arcSize=10;strokeColor=#0D5091;metaEdit=1;resizable=0;points=[[0.25,0,0],[0.5,0,0],[0.75,0,0],[1,0.25,0],[1,0.5,0],[1,0.75,0],[0.75,1,0],[0.5,1,0],[0.25,1,0],[0,0.75,0],[0,0.5,0],[0,0.25,0]];" parent="1" vertex="1">
            <mxGeometry x="100" y="360" width="240" height="120" as="geometry" />
          </mxCell>
        </object>
        <mxCell id="kfNd2m6IobNvLO3QgIsy-7" style="edgeStyle=orthogonalEdgeStyle;rounded=0;orthogonalLoop=1;jettySize=auto;html=1;entryX=1;entryY=0.25;entryDx=0;entryDy=0;entryPerimeter=0;" parent="1" source="kfNd2m6IobNvLO3QgIsy-2" target="kfNd2m6IobNvLO3QgIsy-4" edge="1">
          <mxGeometry relative="1" as="geometry" />
        </mxCell>
        <mxCell id="kfNd2m6IobNvLO3QgIsy-8" value="Realiza Envio de uma&amp;nbsp;&lt;div&gt;nova nominação&amp;nbsp;&lt;br&gt;entrada ou saida&lt;/div&gt;" style="edgeLabel;html=1;align=center;verticalAlign=middle;resizable=0;points=[];" parent="kfNd2m6IobNvLO3QgIsy-7" vertex="1" connectable="0">
          <mxGeometry x="0.1202" y="1" relative="1" as="geometry">
            <mxPoint y="-1" as="offset" />
          </mxGeometry>
        </mxCell>
        <object placeholders="1" c4Type="events-nominacao-v2" c4Container="Container" c4Technology="Apache Kafka" c4Description="Orquestra eventos da nominação v2" label="&lt;font style=&quot;font-size: 16px&quot;&gt;&lt;b&gt;%c4Type%&lt;/b&gt;&lt;/font&gt;&lt;div&gt;[%c4Container%:&amp;nbsp;%c4Technology%]&lt;/div&gt;&lt;br&gt;&lt;div&gt;&lt;font style=&quot;font-size: 11px&quot;&gt;&lt;font color=&quot;#E6E6E6&quot;&gt;%c4Description%&lt;/font&gt;&lt;/div&gt;" id="kfNd2m6IobNvLO3QgIsy-9">
          <mxCell style="shape=cylinder3;size=15;direction=south;whiteSpace=wrap;html=1;boundedLbl=1;rounded=0;labelBackgroundColor=none;fillColor=#23A2D9;fontSize=12;fontColor=#ffffff;align=center;strokeColor=#0E7DAD;metaEdit=1;points=[[0.5,0,0],[1,0.25,0],[1,0.5,0],[1,0.75,0],[0.5,1,0],[0,0.75,0],[0,0.5,0],[0,0.25,0]];resizable=0;" parent="1" vertex="1">
            <mxGeometry x="540" y="460" width="240" height="120" as="geometry" />
          </mxCell>
        </object>
        <mxCell id="kfNd2m6IobNvLO3QgIsy-10" style="edgeStyle=orthogonalEdgeStyle;rounded=0;orthogonalLoop=1;jettySize=auto;html=1;entryX=0.5;entryY=1;entryDx=0;entryDy=0;entryPerimeter=0;dashed=1;" parent="1" source="kfNd2m6IobNvLO3QgIsy-4" target="kfNd2m6IobNvLO3QgIsy-9" edge="1">
          <mxGeometry relative="1" as="geometry" />
        </mxCell>
        <mxCell id="kfNd2m6IobNvLO3QgIsy-12" value="Envia os Eventos&lt;br&gt;da nominação v2,&lt;br&gt;criada, editada, excluida" style="edgeLabel;html=1;align=center;verticalAlign=middle;resizable=0;points=[];" parent="kfNd2m6IobNvLO3QgIsy-10" vertex="1" connectable="0">
          <mxGeometry x="-0.0453" y="2" relative="1" as="geometry">
            <mxPoint y="1" as="offset" />
          </mxGeometry>
        </mxCell>
        <object placeholders="1" c4Type="Banco de dados" c4Container="Banco de Dados" c4Technology="SQLServer" c4Description="Banco de dados Legado com novas tabelas para novas partes do sistema" label="&lt;font style=&quot;font-size: 16px&quot;&gt;&lt;b&gt;%c4Type%&lt;/b&gt;&lt;/font&gt;&lt;div&gt;[%c4Container%:&amp;nbsp;%c4Technology%]&lt;/div&gt;&lt;br&gt;&lt;div&gt;&lt;font style=&quot;font-size: 11px&quot;&gt;&lt;font color=&quot;#E6E6E6&quot;&gt;%c4Description%&lt;/font&gt;&lt;/div&gt;" id="kfNd2m6IobNvLO3QgIsy-11">
          <mxCell style="shape=cylinder3;size=15;whiteSpace=wrap;html=1;boundedLbl=1;rounded=0;labelBackgroundColor=none;fillColor=#23A2D9;fontSize=12;fontColor=#ffffff;align=center;strokeColor=#0E7DAD;metaEdit=1;points=[[0.5,0,0],[1,0.25,0],[1,0.5,0],[1,0.75,0],[0.5,1,0],[0,0.75,0],[0,0.5,0],[0,0.25,0]];resizable=0;" parent="1" vertex="1">
            <mxGeometry x="60" y="920" width="240" height="120" as="geometry" />
          </mxCell>
        </object>
        <mxCell id="kfNd2m6IobNvLO3QgIsy-17" style="edgeStyle=orthogonalEdgeStyle;rounded=0;orthogonalLoop=1;jettySize=auto;html=1;" parent="1" source="kfNd2m6IobNvLO3QgIsy-13" target="kfNd2m6IobNvLO3QgIsy-11" edge="1">
          <mxGeometry relative="1" as="geometry" />
        </mxCell>
        <mxCell id="kfNd2m6IobNvLO3QgIsy-18" value="Grava matching&lt;div&gt;&amp;nbsp;no banco&lt;/div&gt;" style="edgeLabel;html=1;align=center;verticalAlign=middle;resizable=0;points=[];" parent="kfNd2m6IobNvLO3QgIsy-17" vertex="1" connectable="0">
          <mxGeometry x="-0.1941" y="1" relative="1" as="geometry">
            <mxPoint as="offset" />
          </mxGeometry>
        </mxCell>
        <object placeholders="1" c4Name="matching-engine" c4Type="Software System" c4Description="Realiza o matching de nominações (entrada e saida)" label="&lt;font style=&quot;font-size: 16px&quot;&gt;&lt;b&gt;%c4Name%&lt;/b&gt;&lt;/font&gt;&lt;div&gt;[%c4Type%]&lt;/div&gt;&lt;br&gt;&lt;div&gt;&lt;font style=&quot;font-size: 11px&quot;&gt;&lt;font color=&quot;#cccccc&quot;&gt;%c4Description%&lt;/font&gt;&lt;/div&gt;" id="kfNd2m6IobNvLO3QgIsy-13">
          <mxCell style="rounded=1;whiteSpace=wrap;html=1;labelBackgroundColor=none;fillColor=#1061B0;fontColor=#ffffff;align=center;arcSize=10;strokeColor=#0D5091;metaEdit=1;resizable=0;points=[[0.25,0,0],[0.5,0,0],[0.75,0,0],[1,0.25,0],[1,0.5,0],[1,0.75,0],[0.75,1,0],[0.5,1,0],[0.25,1,0],[0,0.75,0],[0,0.5,0],[0,0.25,0]];" parent="1" vertex="1">
            <mxGeometry x="280" y="680" width="240" height="120" as="geometry" />
          </mxCell>
        </object>
        <object placeholders="1" c4Name="ACL-Nominacao" c4Type="Software System" c4Description="ACL Nominação 2.0" label="&lt;font style=&quot;font-size: 16px&quot;&gt;&lt;b&gt;%c4Name%&lt;/b&gt;&lt;/font&gt;&lt;div&gt;[%c4Type%]&lt;/div&gt;&lt;br&gt;&lt;div&gt;&lt;font style=&quot;font-size: 11px&quot;&gt;&lt;font color=&quot;#cccccc&quot;&gt;%c4Description%&lt;/font&gt;&lt;/div&gt;" id="kfNd2m6IobNvLO3QgIsy-14">
          <mxCell style="rounded=1;whiteSpace=wrap;html=1;labelBackgroundColor=none;fillColor=#1061B0;fontColor=#ffffff;align=center;arcSize=10;strokeColor=#0D5091;metaEdit=1;resizable=0;points=[[0.25,0,0],[0.5,0,0],[0.75,0,0],[1,0.25,0],[1,0.5,0],[1,0.75,0],[0.75,1,0],[0.5,1,0],[0.25,1,0],[0,0.75,0],[0,0.5,0],[0,0.25,0]];" parent="1" vertex="1">
            <mxGeometry x="540" y="680" width="240" height="120" as="geometry" />
          </mxCell>
        </object>
        <mxCell id="kfNd2m6IobNvLO3QgIsy-15" style="edgeStyle=orthogonalEdgeStyle;rounded=0;orthogonalLoop=1;jettySize=auto;html=1;entryX=0.5;entryY=0;entryDx=0;entryDy=0;entryPerimeter=0;exitX=1;exitY=0.75;exitDx=0;exitDy=0;exitPerimeter=0;dashed=1;" parent="1" source="kfNd2m6IobNvLO3QgIsy-9" target="kfNd2m6IobNvLO3QgIsy-13" edge="1">
          <mxGeometry relative="1" as="geometry">
            <Array as="points">
              <mxPoint x="600" y="610" />
              <mxPoint x="400" y="610" />
            </Array>
          </mxGeometry>
        </mxCell>
        <mxCell id="kfNd2m6IobNvLO3QgIsy-16" value="Enviando eventos&amp;nbsp;&lt;div&gt;da nominação&lt;/div&gt;" style="edgeLabel;html=1;align=center;verticalAlign=middle;resizable=0;points=[];" parent="kfNd2m6IobNvLO3QgIsy-15" vertex="1" connectable="0">
          <mxGeometry x="-0.1356" y="-1" relative="1" as="geometry">
            <mxPoint as="offset" />
          </mxGeometry>
        </mxCell>
        <mxCell id="kfNd2m6IobNvLO3QgIsy-19" style="edgeStyle=orthogonalEdgeStyle;rounded=0;orthogonalLoop=1;jettySize=auto;html=1;entryX=0.5;entryY=0;entryDx=0;entryDy=0;entryPerimeter=0;dashed=1;" parent="1" source="kfNd2m6IobNvLO3QgIsy-9" target="kfNd2m6IobNvLO3QgIsy-14" edge="1">
          <mxGeometry relative="1" as="geometry" />
        </mxCell>
        <mxCell id="kfNd2m6IobNvLO3QgIsy-20" value="TeEnviando eventos&amp;nbsp;&lt;br&gt;da nominaçãoxt" style="edgeLabel;html=1;align=center;verticalAlign=middle;resizable=0;points=[];" parent="kfNd2m6IobNvLO3QgIsy-19" vertex="1" connectable="0">
          <mxGeometry x="-0.0333" y="3" relative="1" as="geometry">
            <mxPoint as="offset" />
          </mxGeometry>
        </mxCell>
        <mxCell id="kfNd2m6IobNvLO3QgIsy-23" style="edgeStyle=orthogonalEdgeStyle;rounded=0;orthogonalLoop=1;jettySize=auto;html=1;entryX=1;entryY=0.5;entryDx=0;entryDy=0;entryPerimeter=0;" parent="1" source="kfNd2m6IobNvLO3QgIsy-14" target="kfNd2m6IobNvLO3QgIsy-11" edge="1">
          <mxGeometry relative="1" as="geometry">
            <Array as="points">
              <mxPoint x="660" y="980" />
            </Array>
          </mxGeometry>
        </mxCell>
        <mxCell id="kfNd2m6IobNvLO3QgIsy-24" value="Realiza as integrações&amp;nbsp;&lt;div&gt;legadas sem corroper&amp;nbsp;&lt;/div&gt;&lt;div&gt;a nominação v2&lt;/div&gt;" style="edgeLabel;html=1;align=center;verticalAlign=middle;resizable=0;points=[];" parent="kfNd2m6IobNvLO3QgIsy-23" vertex="1" connectable="0">
          <mxGeometry x="-0.6729" y="-3" relative="1" as="geometry">
            <mxPoint as="offset" />
          </mxGeometry>
        </mxCell>
        <mxCell id="kfNd2m6IobNvLO3QgIsy-25" value="Legend" style="shape=table;startSize=30;container=1;collapsible=0;childLayout=tableLayout;fontSize=16;align=left;verticalAlign=top;fillColor=none;strokeColor=none;fontColor=#4D4D4D;fontStyle=1;spacingLeft=6;spacing=0;resizable=0;" parent="1" vertex="1">
          <mxGeometry x="640" width="180" height="150" as="geometry" />
        </mxCell>
        <mxCell id="kfNd2m6IobNvLO3QgIsy-26" value="" style="shape=tableRow;horizontal=0;startSize=0;swimlaneHead=0;swimlaneBody=0;strokeColor=inherit;top=0;left=0;bottom=0;right=0;collapsible=0;dropTarget=0;fillColor=none;points=[[0,0.5],[1,0.5]];portConstraint=eastwest;fontSize=12;" parent="kfNd2m6IobNvLO3QgIsy-25" vertex="1">
          <mxGeometry y="30" width="180" height="30" as="geometry" />
        </mxCell>
        <mxCell id="kfNd2m6IobNvLO3QgIsy-27" value="Client" style="shape=partialRectangle;html=1;whiteSpace=wrap;connectable=0;strokeColor=inherit;overflow=hidden;fillColor=#1E4074;top=0;left=0;bottom=0;right=0;pointerEvents=1;fontSize=12;align=left;fontColor=#FFFFFF;gradientColor=none;spacingLeft=10;spacingRight=4;" parent="kfNd2m6IobNvLO3QgIsy-26" vertex="1">
          <mxGeometry width="180" height="30" as="geometry">
            <mxRectangle width="180" height="30" as="alternateBounds" />
          </mxGeometry>
        </mxCell>
        <mxCell id="kfNd2m6IobNvLO3QgIsy-28" value="" style="shape=tableRow;horizontal=0;startSize=0;swimlaneHead=0;swimlaneBody=0;strokeColor=inherit;top=0;left=0;bottom=0;right=0;collapsible=0;dropTarget=0;fillColor=none;points=[[0,0.5],[1,0.5]];portConstraint=eastwest;fontSize=12;" parent="kfNd2m6IobNvLO3QgIsy-25" vertex="1">
          <mxGeometry y="60" width="180" height="30" as="geometry" />
        </mxCell>
        <mxCell id="kfNd2m6IobNvLO3QgIsy-29" value="Software System" style="shape=partialRectangle;html=1;whiteSpace=wrap;connectable=0;strokeColor=inherit;overflow=hidden;fillColor=#3162AF;top=0;left=0;bottom=0;right=0;pointerEvents=1;fontSize=12;align=left;fontColor=#FFFFFF;gradientColor=none;spacingLeft=10;spacingRight=4;" parent="kfNd2m6IobNvLO3QgIsy-28" vertex="1">
          <mxGeometry width="180" height="30" as="geometry">
            <mxRectangle width="180" height="30" as="alternateBounds" />
          </mxGeometry>
        </mxCell>
        <mxCell id="kfNd2m6IobNvLO3QgIsy-30" value="" style="shape=tableRow;horizontal=0;startSize=0;swimlaneHead=0;swimlaneBody=0;strokeColor=inherit;top=0;left=0;bottom=0;right=0;collapsible=0;dropTarget=0;fillColor=none;points=[[0,0.5],[1,0.5]];portConstraint=eastwest;fontSize=12;" parent="kfNd2m6IobNvLO3QgIsy-25" vertex="1">
          <mxGeometry y="90" width="180" height="30" as="geometry" />
        </mxCell>
        <mxCell id="kfNd2m6IobNvLO3QgIsy-31" value="Container" style="shape=partialRectangle;html=1;whiteSpace=wrap;connectable=0;strokeColor=inherit;overflow=hidden;fillColor=#52a2d8;top=0;left=0;bottom=0;right=0;pointerEvents=1;fontSize=12;align=left;fontColor=#FFFFFF;gradientColor=none;spacingLeft=10;spacingRight=4;" parent="kfNd2m6IobNvLO3QgIsy-30" vertex="1">
          <mxGeometry width="180" height="30" as="geometry">
            <mxRectangle width="180" height="30" as="alternateBounds" />
          </mxGeometry>
        </mxCell>
        <mxCell id="kfNd2m6IobNvLO3QgIsy-34" value="" style="shape=tableRow;horizontal=0;startSize=0;swimlaneHead=0;swimlaneBody=0;strokeColor=inherit;top=0;left=0;bottom=0;right=0;collapsible=0;dropTarget=0;fillColor=none;points=[[0,0.5],[1,0.5]];portConstraint=eastwest;fontSize=12;" parent="kfNd2m6IobNvLO3QgIsy-25" vertex="1">
          <mxGeometry y="120" width="180" height="30" as="geometry" />
        </mxCell>
        <mxCell id="kfNd2m6IobNvLO3QgIsy-35" value="External Client" style="shape=partialRectangle;html=1;whiteSpace=wrap;connectable=0;strokeColor=inherit;overflow=hidden;fillColor=#6b6477;top=0;left=0;bottom=0;right=0;pointerEvents=1;fontSize=12;align=left;fontColor=#FFFFFF;gradientColor=none;spacingLeft=10;spacingRight=4;" parent="kfNd2m6IobNvLO3QgIsy-34" vertex="1">
          <mxGeometry width="180" height="30" as="geometry">
            <mxRectangle width="180" height="30" as="alternateBounds" />
          </mxGeometry>
        </mxCell>
      </root>
    </mxGraphModel>
  </diagram>
  <diagram id="_d-OhA3PHFul_VTuETrB" name="Container">
    <mxGraphModel dx="808" dy="435" grid="1" gridSize="10" guides="1" tooltips="1" connect="1" arrows="1" fold="1" page="1" pageScale="1" pageWidth="827" pageHeight="1169" math="0" shadow="0">
      <root>
        <mxCell id="0" />
        <mxCell id="1" parent="0" />
        <mxCell id="4QUge0CLAxA1LtzzfXMb-1" style="edgeStyle=orthogonalEdgeStyle;rounded=0;orthogonalLoop=1;jettySize=auto;html=1;exitX=0.991;exitY=0.635;exitDx=0;exitDy=0;exitPerimeter=0;" edge="1" parent="1" source="MoGKAQLPMniDsz_H17lD-1" target="MoGKAQLPMniDsz_H17lD-6">
          <mxGeometry relative="1" as="geometry" />
        </mxCell>
        <mxCell id="4QUge0CLAxA1LtzzfXMb-2" value="Envia CRUD,&lt;br&gt;REST, HTTP (JSON)" style="edgeLabel;html=1;align=center;verticalAlign=middle;resizable=0;points=[];" vertex="1" connectable="0" parent="4QUge0CLAxA1LtzzfXMb-1">
          <mxGeometry x="-0.165" relative="1" as="geometry">
            <mxPoint as="offset" />
          </mxGeometry>
        </mxCell>
        <object placeholders="1" c4Type="frontand-carregador" c4Container="frontand-carregador" c4Technology="e.g. JavaScript, Angular etc." c4Description="Description of web browser container role/responsibility." label="&lt;font style=&quot;font-size: 16px&quot;&gt;&lt;b&gt;%c4Type%&lt;/b&gt;&lt;/font&gt;&lt;div&gt;[%c4Container%:&amp;nbsp;%c4Technology%]&lt;/div&gt;&lt;br&gt;&lt;div&gt;&lt;font style=&quot;font-size: 11px&quot;&gt;&lt;font color=&quot;#E6E6E6&quot;&gt;%c4Description%&lt;/font&gt;&lt;/div&gt;" id="MoGKAQLPMniDsz_H17lD-1">
          <mxCell style="shape=mxgraph.c4.webBrowserContainer2;whiteSpace=wrap;html=1;boundedLbl=1;rounded=0;labelBackgroundColor=none;strokeColor=none;fillColor=#8c8496;strokeColor=#118ACD;strokeColor2=#0E7DAD;fontSize=12;fontColor=#ffffff;align=center;metaEdit=1;points=[[0.5,0,0],[1,0.25,0],[1,0.5,0],[1,0.75,0],[0.5,1,0],[0,0.75,0],[0,0.5,0],[0,0.25,0]];resizable=0;" parent="1" vertex="1">
            <mxGeometry x="460" y="380" width="240" height="160" as="geometry" />
          </mxCell>
        </object>
        <object placeholders="1" c4Name="Transportador" c4Type="Person" c4Description="Cliente interno" label="&lt;font style=&quot;font-size: 16px&quot;&gt;&lt;b&gt;%c4Name%&lt;/b&gt;&lt;/font&gt;&lt;div&gt;[%c4Type%]&lt;/div&gt;&lt;br&gt;&lt;div&gt;&lt;font style=&quot;font-size: 11px&quot;&gt;&lt;font color=&quot;#cccccc&quot;&gt;%c4Description%&lt;/font&gt;&lt;/div&gt;" id="MoGKAQLPMniDsz_H17lD-2">
          <mxCell style="html=1;fontSize=11;dashed=0;whiteSpace=wrap;fillColor=#083F75;strokeColor=#06315C;fontColor=#ffffff;shape=mxgraph.c4.person2;align=center;metaEdit=1;points=[[0.5,0,0],[1,0.5,0],[1,0.75,0],[0.75,1,0],[0.5,1,0],[0.25,1,0],[0,0.75,0],[0,0.5,0]];resizable=0;" parent="1" vertex="1">
            <mxGeometry x="100" y="80" width="200" height="180" as="geometry" />
          </mxCell>
        </object>
        <mxCell id="KuVBhjNUDmHwjBpoqq2D-19" style="edgeStyle=orthogonalEdgeStyle;rounded=0;orthogonalLoop=1;jettySize=auto;html=1;" parent="1" source="MoGKAQLPMniDsz_H17lD-3" target="MoGKAQLPMniDsz_H17lD-5" edge="1">
          <mxGeometry relative="1" as="geometry" />
        </mxCell>
        <mxCell id="KuVBhjNUDmHwjBpoqq2D-32" value="Solicita autorização.&amp;nbsp;&lt;div&gt;REST, HTTP (JSON)&lt;/div&gt;" style="edgeLabel;html=1;align=center;verticalAlign=middle;resizable=0;points=[];" parent="KuVBhjNUDmHwjBpoqq2D-19" vertex="1" connectable="0">
          <mxGeometry x="0.0353" relative="1" as="geometry">
            <mxPoint x="5" y="1" as="offset" />
          </mxGeometry>
        </mxCell>
        <object placeholders="1" c4Name="backand-shared" c4Type="Spring-Boot" c4Description="Responsável por autenticar as requisições, além de outras funcionalidades." label="&lt;font style=&quot;font-size: 16px&quot;&gt;&lt;b&gt;%c4Name%&lt;/b&gt;&lt;/font&gt;&lt;div&gt;[%c4Type%]&lt;/div&gt;&lt;br&gt;&lt;div&gt;&lt;font style=&quot;font-size: 11px&quot;&gt;&lt;font color=&quot;#cccccc&quot;&gt;%c4Description%&lt;/font&gt;&lt;/div&gt;" id="MoGKAQLPMniDsz_H17lD-3">
          <mxCell style="rounded=1;whiteSpace=wrap;html=1;labelBackgroundColor=none;fillColor=#1061B0;fontColor=#ffffff;align=center;arcSize=10;strokeColor=#0D5091;metaEdit=1;resizable=0;points=[[0.25,0,0],[0.5,0,0],[0.75,0,0],[1,0.25,0],[1,0.5,0],[1,0.75,0],[0.75,1,0],[0.5,1,0],[0.25,1,0],[0,0.75,0],[0,0.5,0],[0,0.25,0]];" parent="1" vertex="1">
            <mxGeometry x="910" y="240" width="240" height="120" as="geometry" />
          </mxCell>
        </object>
        <mxCell id="KuVBhjNUDmHwjBpoqq2D-21" style="edgeStyle=orthogonalEdgeStyle;rounded=0;orthogonalLoop=1;jettySize=auto;html=1;" parent="1" source="MoGKAQLPMniDsz_H17lD-4" edge="1">
          <mxGeometry relative="1" as="geometry">
            <mxPoint x="1160" y="300" as="targetPoint" />
          </mxGeometry>
        </mxCell>
        <mxCell id="KuVBhjNUDmHwjBpoqq2D-35" value="Envia Token, &lt;br&gt;REST,HTTP (JSON)" style="edgeLabel;html=1;align=center;verticalAlign=middle;resizable=0;points=[];" parent="KuVBhjNUDmHwjBpoqq2D-21" vertex="1" connectable="0">
          <mxGeometry x="-0.1613" y="2" relative="1" as="geometry">
            <mxPoint as="offset" />
          </mxGeometry>
        </mxCell>
        <object placeholders="1" c4Name="CA" c4Type="Controlador de Acesso" c4Description="Fornece tokens de acesso" label="&lt;font style=&quot;font-size: 16px&quot;&gt;&lt;b&gt;%c4Name%&lt;/b&gt;&lt;/font&gt;&lt;div&gt;[%c4Type%]&lt;/div&gt;&lt;br&gt;&lt;div&gt;&lt;font style=&quot;font-size: 11px&quot;&gt;&lt;font color=&quot;#cccccc&quot;&gt;%c4Description%&lt;/font&gt;&lt;/div&gt;" id="MoGKAQLPMniDsz_H17lD-4">
          <mxCell style="rounded=1;whiteSpace=wrap;html=1;labelBackgroundColor=none;fillColor=#8C8496;fontColor=#ffffff;align=center;arcSize=10;strokeColor=#736782;metaEdit=1;resizable=0;points=[[0.25,0,0],[0.5,0,0],[0.75,0,0],[1,0.25,0],[1,0.5,0],[1,0.75,0],[0.75,1,0],[0.5,1,0],[0.25,1,0],[0,0.75,0],[0,0.5,0],[0,0.25,0]];" parent="1" vertex="1">
            <mxGeometry x="1325" y="240" width="240" height="120" as="geometry" />
          </mxCell>
        </object>
        <object placeholders="1" c4Type="frontand-transportador" c4Container="frontand-transportador" c4Technology="Angular" c4Description="Monolito resposavel pelas operações de transporte de gás" label="&lt;font style=&quot;font-size: 16px&quot;&gt;&lt;b&gt;%c4Type%&lt;/b&gt;&lt;/font&gt;&lt;div&gt;[%c4Container%:&amp;nbsp;%c4Technology%]&lt;/div&gt;&lt;br&gt;&lt;div&gt;&lt;font style=&quot;font-size: 11px&quot;&gt;&lt;font color=&quot;#E6E6E6&quot;&gt;%c4Description%&lt;/font&gt;&lt;/div&gt;" id="MoGKAQLPMniDsz_H17lD-5">
          <mxCell style="shape=mxgraph.c4.webBrowserContainer2;whiteSpace=wrap;html=1;boundedLbl=1;rounded=0;labelBackgroundColor=none;strokeColor=#118ACD;fillColor=#23A2D9;strokeColor=#118ACD;strokeColor2=#0E7DAD;fontSize=12;fontColor=#ffffff;align=center;metaEdit=1;points=[[0.5,0,0],[1,0.25,0],[1,0.5,0],[1,0.75,0],[0.5,1,0],[0,0.75,0],[0,0.5,0],[0,0.25,0]];resizable=0;" parent="1" vertex="1">
            <mxGeometry x="460" y="90" width="240" height="160" as="geometry" />
          </mxCell>
        </object>
        <object placeholders="1" c4Name="nominacao_v2" c4Type="Spring-Boot" c4Description="Novo servições de nominação" label="&lt;font style=&quot;font-size: 16px&quot;&gt;&lt;b&gt;%c4Name%&lt;/b&gt;&lt;/font&gt;&lt;div&gt;[%c4Type%]&lt;/div&gt;&lt;br&gt;&lt;div&gt;&lt;font style=&quot;font-size: 11px&quot;&gt;&lt;font color=&quot;#cccccc&quot;&gt;%c4Description%&lt;/font&gt;&lt;/div&gt;" id="MoGKAQLPMniDsz_H17lD-6">
          <mxCell style="rounded=1;whiteSpace=wrap;html=1;labelBackgroundColor=none;fillColor=#1061B0;fontColor=#ffffff;align=center;arcSize=10;strokeColor=#0D5091;metaEdit=1;resizable=0;points=[[0.25,0,0],[0.5,0,0],[0.75,0,0],[1,0.25,0],[1,0.5,0],[1,0.75,0],[0.75,1,0],[0.5,1,0],[0.25,1,0],[0,0.75,0],[0,0.5,0],[0,0.25,0]];" parent="1" vertex="1">
            <mxGeometry x="910" y="550" width="240" height="120" as="geometry" />
          </mxCell>
        </object>
        <mxCell id="KuVBhjNUDmHwjBpoqq2D-25" style="edgeStyle=orthogonalEdgeStyle;rounded=0;orthogonalLoop=1;jettySize=auto;html=1;" parent="1" source="MoGKAQLPMniDsz_H17lD-8" target="MoGKAQLPMniDsz_H17lD-10" edge="1">
          <mxGeometry relative="1" as="geometry">
            <Array as="points">
              <mxPoint x="1445" y="710" />
              <mxPoint x="1150" y="710" />
            </Array>
          </mxGeometry>
        </mxCell>
        <mxCell id="KuVBhjNUDmHwjBpoqq2D-44" value="&lt;span style=&quot;color: rgba(0, 0, 0, 0); font-family: monospace; font-size: 0px; text-align: start; background-color: rgb(251, 251, 251);&quot;&gt;%3CmxGraphModel%3E%3Croot%3E%3CmxCell%20id%3D%220%22%2F%3E%3CmxCell%20id%3D%221%22%20parent%3D%220%22%2F%3E%3CmxCell%20id%3D%222%22%20value%3D%22Envia%20evento%20das%20opera%C3%A7%C3%B5es%26lt%3Bbr%26gt%3BKafka-protocol%26lt%3Bbr%26gt%3B%26lt%3Bspan%20style%3D%26quot%3Bcolor%3A%20rgb(13%2C%2013%2C%2013)%3B%20font-family%3A%20S%C3%B6hne%2C%20ui-sans-serif%2C%20system-ui%2C%20-apple-system%2C%20%26amp%3Bquot%3BSegoe%20UI%26amp%3Bquot%3B%2C%20Roboto%2C%20Ubuntu%2C%20Cantarell%2C%20%26amp%3Bquot%3BNoto%20Sans%26amp%3Bquot%3B%2C%20sans-serif%2C%20%26amp%3Bquot%3BHelvetica%20Neue%26amp%3Bquot%3B%2C%20Arial%2C%20%26amp%3Bquot%3BApple%20Color%20Emoji%26amp%3Bquot%3B%2C%20%26amp%3Bquot%3BSegoe%20UI%20Emoji%26amp%3Bquot%3B%2C%20%26amp%3Bquot%3BSegoe%20UI%20Symbol%26amp%3Bquot%3B%2C%20%26amp%3Bquot%3BNoto%20Color%20Emoji%26amp%3Bquot%3B%3B%20text-align%3A%20start%3B%20white-space%3A%20pre-wrap%3B%26quot%3B%26gt%3B%26lt%3Bfont%20style%3D%26quot%3Bfont-size%3A%2012px%3B%26quot%3B%26gt%3Bpublishing%26lt%3B%2Ffont%26gt%3B%26lt%3B%2Fspan%26gt%3B%22%20style%3D%22edgeLabel%3Bhtml%3D1%3Balign%3Dcenter%3BverticalAlign%3Dmiddle%3Bresizable%3D0%3Bpoints%3D%5B%5D%3B%22%20vertex%3D%221%22%20connectable%3D%220%22%20parent%3D%221%22%3E%3CmxGeometry%20x%3D%221278.0031918014315%22%20y%3D%22599.3575839750738%22%20as%3D%22geometry%22%2F%3E%3C%2FmxCell%3E%3C%2Froot%3E%3C%2FmxGraphModel%3E&lt;/span&gt;" style="edgeLabel;html=1;align=center;verticalAlign=middle;resizable=0;points=[];" parent="KuVBhjNUDmHwjBpoqq2D-25" vertex="1" connectable="0">
          <mxGeometry x="0.2172" y="-3" relative="1" as="geometry">
            <mxPoint x="-1" as="offset" />
          </mxGeometry>
        </mxCell>
        <mxCell id="KuVBhjNUDmHwjBpoqq2D-45" value="&lt;span style=&quot;color: rgba(0, 0, 0, 0); font-family: monospace; font-size: 0px; text-align: start; background-color: rgb(251, 251, 251);&quot;&gt;%3CmxGraphModel%3E%3Croot%3E%3CmxCell%20id%3D%220%22%2F%3E%3CmxCell%20id%3D%221%22%20parent%3D%220%22%2F%3E%3CmxCell%20id%3D%222%22%20value%3D%22Envia%20evento%20das%20opera%C3%A7%C3%B5es%26lt%3Bbr%26gt%3BKafka-protocol%26lt%3Bbr%26gt%3B%26lt%3Bspan%20style%3D%26quot%3Bcolor%3A%20rgb(13%2C%2013%2C%2013)%3B%20font-family%3A%20S%C3%B6hne%2C%20ui-sans-serif%2C%20system-ui%2C%20-apple-system%2C%20%26amp%3Bquot%3BSegoe%20UI%26amp%3Bquot%3B%2C%20Roboto%2C%20Ubuntu%2C%20Cantarell%2C%20%26amp%3Bquot%3BNoto%20Sans%26amp%3Bquot%3B%2C%20sans-serif%2C%20%26amp%3Bquot%3BHelvetica%20Neue%26amp%3Bquot%3B%2C%20Arial%2C%20%26amp%3Bquot%3BApple%20Color%20Emoji%26amp%3Bquot%3B%2C%20%26amp%3Bquot%3BSegoe%20UI%20Emoji%26amp%3Bquot%3B%2C%20%26amp%3Bquot%3BSegoe%20UI%20Symbol%26amp%3Bquot%3B%2C%20%26amp%3Bquot%3BNoto%20Color%20Emoji%26amp%3Bquot%3B%3B%20text-align%3A%20start%3B%20white-space%3A%20pre-wrap%3B%26quot%3B%26gt%3B%26lt%3Bfont%20style%3D%26quot%3Bfont-size%3A%2012px%3B%26quot%3B%26gt%3Bpublishing%26lt%3B%2Ffont%26gt%3B%26lt%3B%2Fspan%26gt%3B%22%20style%3D%22edgeLabel%3Bhtml%3D1%3Balign%3Dcenter%3BverticalAlign%3Dmiddle%3Bresizable%3D0%3Bpoints%3D%5B%5D%3B%22%20vertex%3D%221%22%20connectable%3D%220%22%20parent%3D%221%22%3E%3CmxGeometry%20x%3D%221278.0031918014315%22%20y%3D%22599.3575839750738%22%20as%3D%22geometry%22%2F%3E%3C%2FmxCell%3E%3C%2Froot%3E%3C%2FmxGraphModel%3E&lt;/span&gt;" style="edgeLabel;html=1;align=center;verticalAlign=middle;resizable=0;points=[];" parent="KuVBhjNUDmHwjBpoqq2D-25" vertex="1" connectable="0">
          <mxGeometry x="0.4099" y="-1" relative="1" as="geometry">
            <mxPoint x="-1" as="offset" />
          </mxGeometry>
        </mxCell>
        <mxCell id="KuVBhjNUDmHwjBpoqq2D-46" value="Escuta eventos das operações&lt;br&gt;Kafka-protocol&lt;br&gt;&lt;span style=&quot;color: rgb(13, 13, 13); font-family: Söhne, ui-sans-serif, system-ui, -apple-system, &amp;quot;Segoe UI&amp;quot;, Roboto, Ubuntu, Cantarell, &amp;quot;Noto Sans&amp;quot;, sans-serif, &amp;quot;Helvetica Neue&amp;quot;, Arial, &amp;quot;Apple Color Emoji&amp;quot;, &amp;quot;Segoe UI Emoji&amp;quot;, &amp;quot;Segoe UI Symbol&amp;quot;, &amp;quot;Noto Color Emoji&amp;quot;; text-align: start; white-space: pre-wrap;&quot;&gt;&lt;font style=&quot;font-size: 12px;&quot;&gt;subscribing&lt;/font&gt;&lt;/span&gt;" style="edgeLabel;html=1;align=center;verticalAlign=middle;resizable=0;points=[];" parent="KuVBhjNUDmHwjBpoqq2D-25" vertex="1" connectable="0">
          <mxGeometry x="0.3456" y="3" relative="1" as="geometry">
            <mxPoint x="44" y="-3" as="offset" />
          </mxGeometry>
        </mxCell>
        <mxCell id="KuVBhjNUDmHwjBpoqq2D-26" style="edgeStyle=orthogonalEdgeStyle;rounded=0;orthogonalLoop=1;jettySize=auto;html=1;" parent="1" source="MoGKAQLPMniDsz_H17lD-8" target="MoGKAQLPMniDsz_H17lD-11" edge="1">
          <mxGeometry relative="1" as="geometry">
            <Array as="points">
              <mxPoint x="1445" y="760" />
              <mxPoint x="1445" y="760" />
            </Array>
          </mxGeometry>
        </mxCell>
        <mxCell id="KuVBhjNUDmHwjBpoqq2D-47" value="Escuta eventos das operações&lt;br&gt;Kafka-protocol&lt;br&gt;&lt;span style=&quot;color: rgb(13, 13, 13); font-family: Söhne, ui-sans-serif, system-ui, -apple-system, &amp;quot;Segoe UI&amp;quot;, Roboto, Ubuntu, Cantarell, &amp;quot;Noto Sans&amp;quot;, sans-serif, &amp;quot;Helvetica Neue&amp;quot;, Arial, &amp;quot;Apple Color Emoji&amp;quot;, &amp;quot;Segoe UI Emoji&amp;quot;, &amp;quot;Segoe UI Symbol&amp;quot;, &amp;quot;Noto Color Emoji&amp;quot;; text-align: start; white-space: pre-wrap;&quot;&gt;&lt;font style=&quot;font-size: 12px;&quot;&gt;subscribing&lt;/font&gt;&lt;/span&gt;" style="edgeLabel;html=1;align=center;verticalAlign=middle;resizable=0;points=[];" parent="KuVBhjNUDmHwjBpoqq2D-26" vertex="1" connectable="0">
          <mxGeometry x="0.2789" y="-1" relative="1" as="geometry">
            <mxPoint y="-1" as="offset" />
          </mxGeometry>
        </mxCell>
        <object placeholders="1" c4Type="brokers Kafka" c4Container="Kafka" c4Technology="Apache Kafka" c4Description="Orquestra os eventos da nominação" label="&lt;font style=&quot;font-size: 16px&quot;&gt;&lt;b&gt;%c4Type%&lt;/b&gt;&lt;/font&gt;&lt;div&gt;[%c4Container%:&amp;nbsp;%c4Technology%]&lt;/div&gt;&lt;br&gt;&lt;div&gt;&lt;font style=&quot;font-size: 11px&quot;&gt;&lt;font color=&quot;#E6E6E6&quot;&gt;%c4Description%&lt;/font&gt;&lt;/div&gt;" id="MoGKAQLPMniDsz_H17lD-8">
          <mxCell style="shape=cylinder3;size=15;direction=south;whiteSpace=wrap;html=1;boundedLbl=1;rounded=0;labelBackgroundColor=none;fillColor=#23A2D9;fontSize=12;fontColor=#ffffff;align=center;strokeColor=#0E7DAD;metaEdit=1;points=[[0.5,0,0],[1,0.25,0],[1,0.5,0],[1,0.75,0],[0.5,1,0],[0,0.75,0],[0,0.5,0],[0,0.25,0]];resizable=0;" parent="1" vertex="1">
            <mxGeometry x="1390" y="550" width="240" height="120" as="geometry" />
          </mxCell>
        </object>
        <object placeholders="1" c4Type="Base de Dados" c4Container="Container" c4Technology="SQLServer" c4Description="Baco de dados unico usado pelo monolito." label="&lt;font style=&quot;font-size: 16px&quot;&gt;&lt;b&gt;%c4Type%&lt;/b&gt;&lt;/font&gt;&lt;div&gt;[%c4Container%:&amp;nbsp;%c4Technology%]&lt;/div&gt;&lt;br&gt;&lt;div&gt;&lt;font style=&quot;font-size: 11px&quot;&gt;&lt;font color=&quot;#E6E6E6&quot;&gt;%c4Description%&lt;/font&gt;&lt;/div&gt;" id="MoGKAQLPMniDsz_H17lD-9">
          <mxCell style="shape=cylinder3;size=15;whiteSpace=wrap;html=1;boundedLbl=1;rounded=0;labelBackgroundColor=none;fillColor=#23A2D9;fontSize=12;fontColor=#ffffff;align=center;strokeColor=#0E7DAD;metaEdit=1;points=[[0.5,0,0],[1,0.25,0],[1,0.5,0],[1,0.75,0],[0.5,1,0],[0,0.75,0],[0,0.5,0],[0,0.25,0]];resizable=0;" parent="1" vertex="1">
            <mxGeometry x="890" y="1020" width="240" height="120" as="geometry" />
          </mxCell>
        </object>
        <object placeholders="1" c4Name="ACL" c4Type="spring-boot" c4Description="Anti-Corruption Layer" label="&lt;font style=&quot;font-size: 16px&quot;&gt;&lt;b&gt;%c4Name%&lt;/b&gt;&lt;/font&gt;&lt;div&gt;[%c4Type%]&lt;/div&gt;&lt;br&gt;&lt;div&gt;&lt;font style=&quot;font-size: 11px&quot;&gt;&lt;font color=&quot;#cccccc&quot;&gt;%c4Description%&lt;/font&gt;&lt;/div&gt;" id="MoGKAQLPMniDsz_H17lD-10">
          <mxCell style="rounded=1;whiteSpace=wrap;html=1;labelBackgroundColor=none;fillColor=#1061B0;fontColor=#ffffff;align=center;arcSize=10;strokeColor=#0D5091;metaEdit=1;resizable=0;points=[[0.25,0,0],[0.5,0,0],[0.75,0,0],[1,0.25,0],[1,0.5,0],[1,0.75,0],[0.75,1,0],[0.5,1,0],[0.25,1,0],[0,0.75,0],[0,0.5,0],[0,0.25,0]];" parent="1" vertex="1">
            <mxGeometry x="1030" y="790" width="240" height="120" as="geometry" />
          </mxCell>
        </object>
        <object placeholders="1" c4Name="matching-engine" c4Type="spring-boot" c4Description=" termo em inglês que se refere a um componente de software responsável por encontrar correspondências entre diferentes elementos de dados. " label="&lt;font style=&quot;font-size: 16px&quot;&gt;&lt;b&gt;%c4Name%&lt;/b&gt;&lt;/font&gt;&lt;div&gt;[%c4Type%]&lt;/div&gt;&lt;br&gt;&lt;div&gt;&lt;font style=&quot;font-size: 11px&quot;&gt;&lt;font color=&quot;#cccccc&quot;&gt;%c4Description%&lt;/font&gt;&lt;/div&gt;" id="MoGKAQLPMniDsz_H17lD-11">
          <mxCell style="rounded=1;whiteSpace=wrap;html=1;labelBackgroundColor=none;fillColor=#1061B0;fontColor=#ffffff;align=center;arcSize=10;strokeColor=#0D5091;metaEdit=1;resizable=0;points=[[0.25,0,0],[0.5,0,0],[0.75,0,0],[1,0.25,0],[1,0.5,0],[1,0.75,0],[0.75,1,0],[0.5,1,0],[0.25,1,0],[0,0.75,0],[0,0.5,0],[0,0.25,0]];" parent="1" vertex="1">
            <mxGeometry x="1340" y="790" width="240" height="120" as="geometry" />
          </mxCell>
        </object>
        <mxCell id="MoGKAQLPMniDsz_H17lD-12" value="&lt;h1 style=&quot;margin-top: 0px;&quot;&gt;ACL&lt;/h1&gt;&lt;p&gt;&lt;b&gt;A &quot;Anti-Corruption Layer&quot; (ACL) é um padrão de arquitetura utilizado em sistemas complexos para isolar e proteger componentes internos de um sistema contra influências externas ou de sistemas legados. Essa camada atua como uma barreira entre diferentes partes do sistema, permitindo que elas se comuniquem de forma segura, mesmo que suas interfaces ou modelos de dados sejam incompatíveis.&lt;/b&gt;&lt;/p&gt;" style="text;html=1;whiteSpace=wrap;overflow=hidden;rounded=0;" parent="1" vertex="1">
          <mxGeometry x="80" y="660" width="290" height="200" as="geometry" />
        </mxCell>
        <object placeholders="1" c4Name="Carregador" c4Type="Person" c4Description="Cliente externo" label="&lt;font style=&quot;font-size: 16px&quot;&gt;&lt;b&gt;%c4Name%&lt;/b&gt;&lt;/font&gt;&lt;div&gt;[%c4Type%]&lt;/div&gt;&lt;br&gt;&lt;div&gt;&lt;font style=&quot;font-size: 11px&quot;&gt;&lt;font color=&quot;#cccccc&quot;&gt;%c4Description%&lt;/font&gt;&lt;/div&gt;" id="KuVBhjNUDmHwjBpoqq2D-1">
          <mxCell style="html=1;fontSize=11;dashed=0;whiteSpace=wrap;fillColor=#6C6477;strokeColor=#4D4D4D;fontColor=#ffffff;shape=mxgraph.c4.person2;align=center;metaEdit=1;points=[[0.5,0,0],[1,0.5,0],[1,0.75,0],[0.75,1,0],[0.5,1,0],[0.25,1,0],[0,0.75,0],[0,0.5,0]];resizable=0;" parent="1" vertex="1">
            <mxGeometry x="100" y="370" width="200" height="180" as="geometry" />
          </mxCell>
        </object>
        <mxCell id="KuVBhjNUDmHwjBpoqq2D-2" value="Legend" style="shape=table;startSize=30;container=1;collapsible=0;childLayout=tableLayout;fontSize=16;align=left;verticalAlign=top;fillColor=none;strokeColor=none;fontColor=#4D4D4D;fontStyle=1;spacingLeft=6;spacing=0;resizable=0;" parent="1" vertex="1">
          <mxGeometry x="70" y="900" width="180" height="180" as="geometry" />
        </mxCell>
        <mxCell id="KuVBhjNUDmHwjBpoqq2D-3" value="" style="shape=tableRow;horizontal=0;startSize=0;swimlaneHead=0;swimlaneBody=0;strokeColor=inherit;top=0;left=0;bottom=0;right=0;collapsible=0;dropTarget=0;fillColor=none;points=[[0,0.5],[1,0.5]];portConstraint=eastwest;fontSize=12;" parent="KuVBhjNUDmHwjBpoqq2D-2" vertex="1">
          <mxGeometry y="30" width="180" height="30" as="geometry" />
        </mxCell>
        <mxCell id="KuVBhjNUDmHwjBpoqq2D-4" value="Person" style="shape=partialRectangle;html=1;whiteSpace=wrap;connectable=0;strokeColor=inherit;overflow=hidden;fillColor=#1E4074;top=0;left=0;bottom=0;right=0;pointerEvents=1;fontSize=12;align=left;fontColor=#FFFFFF;gradientColor=none;spacingLeft=10;spacingRight=4;" parent="KuVBhjNUDmHwjBpoqq2D-3" vertex="1">
          <mxGeometry width="180" height="30" as="geometry">
            <mxRectangle width="180" height="30" as="alternateBounds" />
          </mxGeometry>
        </mxCell>
        <mxCell id="KuVBhjNUDmHwjBpoqq2D-5" value="" style="shape=tableRow;horizontal=0;startSize=0;swimlaneHead=0;swimlaneBody=0;strokeColor=inherit;top=0;left=0;bottom=0;right=0;collapsible=0;dropTarget=0;fillColor=none;points=[[0,0.5],[1,0.5]];portConstraint=eastwest;fontSize=12;" parent="KuVBhjNUDmHwjBpoqq2D-2" vertex="1">
          <mxGeometry y="60" width="180" height="30" as="geometry" />
        </mxCell>
        <mxCell id="KuVBhjNUDmHwjBpoqq2D-6" value="Spring-Boot" style="shape=partialRectangle;html=1;whiteSpace=wrap;connectable=0;strokeColor=inherit;overflow=hidden;fillColor=#3162AF;top=0;left=0;bottom=0;right=0;pointerEvents=1;fontSize=12;align=left;fontColor=#FFFFFF;gradientColor=none;spacingLeft=10;spacingRight=4;" parent="KuVBhjNUDmHwjBpoqq2D-5" vertex="1">
          <mxGeometry width="180" height="30" as="geometry">
            <mxRectangle width="180" height="30" as="alternateBounds" />
          </mxGeometry>
        </mxCell>
        <mxCell id="KuVBhjNUDmHwjBpoqq2D-7" value="" style="shape=tableRow;horizontal=0;startSize=0;swimlaneHead=0;swimlaneBody=0;strokeColor=inherit;top=0;left=0;bottom=0;right=0;collapsible=0;dropTarget=0;fillColor=none;points=[[0,0.5],[1,0.5]];portConstraint=eastwest;fontSize=12;" parent="KuVBhjNUDmHwjBpoqq2D-2" vertex="1">
          <mxGeometry y="90" width="180" height="30" as="geometry" />
        </mxCell>
        <mxCell id="KuVBhjNUDmHwjBpoqq2D-8" value="Container" style="shape=partialRectangle;html=1;whiteSpace=wrap;connectable=0;strokeColor=inherit;overflow=hidden;fillColor=#52a2d8;top=0;left=0;bottom=0;right=0;pointerEvents=1;fontSize=12;align=left;fontColor=#FFFFFF;gradientColor=none;spacingLeft=10;spacingRight=4;" parent="KuVBhjNUDmHwjBpoqq2D-7" vertex="1">
          <mxGeometry width="180" height="30" as="geometry">
            <mxRectangle width="180" height="30" as="alternateBounds" />
          </mxGeometry>
        </mxCell>
        <mxCell id="KuVBhjNUDmHwjBpoqq2D-11" value="" style="shape=tableRow;horizontal=0;startSize=0;swimlaneHead=0;swimlaneBody=0;strokeColor=inherit;top=0;left=0;bottom=0;right=0;collapsible=0;dropTarget=0;fillColor=none;points=[[0,0.5],[1,0.5]];portConstraint=eastwest;fontSize=12;" parent="KuVBhjNUDmHwjBpoqq2D-2" vertex="1">
          <mxGeometry y="120" width="180" height="30" as="geometry" />
        </mxCell>
        <mxCell id="KuVBhjNUDmHwjBpoqq2D-12" value="External Person" style="shape=partialRectangle;html=1;whiteSpace=wrap;connectable=0;strokeColor=inherit;overflow=hidden;fillColor=#6b6477;top=0;left=0;bottom=0;right=0;pointerEvents=1;fontSize=12;align=left;fontColor=#FFFFFF;gradientColor=none;spacingLeft=10;spacingRight=4;" parent="KuVBhjNUDmHwjBpoqq2D-11" vertex="1">
          <mxGeometry width="180" height="30" as="geometry">
            <mxRectangle width="180" height="30" as="alternateBounds" />
          </mxGeometry>
        </mxCell>
        <mxCell id="KuVBhjNUDmHwjBpoqq2D-13" value="" style="shape=tableRow;horizontal=0;startSize=0;swimlaneHead=0;swimlaneBody=0;strokeColor=inherit;top=0;left=0;bottom=0;right=0;collapsible=0;dropTarget=0;fillColor=none;points=[[0,0.5],[1,0.5]];portConstraint=eastwest;fontSize=12;" parent="KuVBhjNUDmHwjBpoqq2D-2" vertex="1">
          <mxGeometry y="150" width="180" height="30" as="geometry" />
        </mxCell>
        <mxCell id="KuVBhjNUDmHwjBpoqq2D-14" value="External Software System" style="shape=partialRectangle;html=1;whiteSpace=wrap;connectable=0;strokeColor=inherit;overflow=hidden;fillColor=#8b8496;top=0;left=0;bottom=0;right=0;pointerEvents=1;fontSize=12;align=left;fontColor=#FFFFFF;gradientColor=none;spacingLeft=10;spacingRight=4;" parent="KuVBhjNUDmHwjBpoqq2D-13" vertex="1">
          <mxGeometry width="180" height="30" as="geometry">
            <mxRectangle width="180" height="30" as="alternateBounds" />
          </mxGeometry>
        </mxCell>
        <mxCell id="KuVBhjNUDmHwjBpoqq2D-15" style="edgeStyle=orthogonalEdgeStyle;rounded=0;orthogonalLoop=1;jettySize=auto;html=1;entryX=0;entryY=0.5;entryDx=0;entryDy=0;entryPerimeter=0;" parent="1" source="MoGKAQLPMniDsz_H17lD-2" target="MoGKAQLPMniDsz_H17lD-5" edge="1">
          <mxGeometry relative="1" as="geometry" />
        </mxCell>
        <mxCell id="KuVBhjNUDmHwjBpoqq2D-30" value="Acessa o Navegador" style="edgeLabel;html=1;align=center;verticalAlign=middle;resizable=0;points=[];" parent="KuVBhjNUDmHwjBpoqq2D-15" vertex="1" connectable="0">
          <mxGeometry x="-0.067" relative="1" as="geometry">
            <mxPoint as="offset" />
          </mxGeometry>
        </mxCell>
        <mxCell id="KuVBhjNUDmHwjBpoqq2D-17" style="edgeStyle=orthogonalEdgeStyle;rounded=0;orthogonalLoop=1;jettySize=auto;html=1;entryX=0;entryY=0.5;entryDx=0;entryDy=0;entryPerimeter=0;" parent="1" source="KuVBhjNUDmHwjBpoqq2D-1" target="MoGKAQLPMniDsz_H17lD-1" edge="1">
          <mxGeometry relative="1" as="geometry" />
        </mxCell>
        <mxCell id="KuVBhjNUDmHwjBpoqq2D-31" value="Acessa o Nevegador" style="edgeLabel;html=1;align=center;verticalAlign=middle;resizable=0;points=[];" parent="KuVBhjNUDmHwjBpoqq2D-17" vertex="1" connectable="0">
          <mxGeometry x="-0.065" y="1" relative="1" as="geometry">
            <mxPoint as="offset" />
          </mxGeometry>
        </mxCell>
        <mxCell id="KuVBhjNUDmHwjBpoqq2D-20" style="edgeStyle=orthogonalEdgeStyle;rounded=0;orthogonalLoop=1;jettySize=auto;html=1;entryX=1;entryY=0.5;entryDx=0;entryDy=0;entryPerimeter=0;" parent="1" source="MoGKAQLPMniDsz_H17lD-3" target="MoGKAQLPMniDsz_H17lD-1" edge="1">
          <mxGeometry relative="1" as="geometry" />
        </mxCell>
        <mxCell id="KuVBhjNUDmHwjBpoqq2D-33" value="Solicita autorização.&amp;nbsp;&lt;div&gt;REST, HTTP (JSON)&lt;/div&gt;" style="edgeLabel;html=1;align=center;verticalAlign=middle;resizable=0;points=[];" parent="KuVBhjNUDmHwjBpoqq2D-20" vertex="1" connectable="0">
          <mxGeometry x="-0.0595" y="4" relative="1" as="geometry">
            <mxPoint as="offset" />
          </mxGeometry>
        </mxCell>
        <mxCell id="KuVBhjNUDmHwjBpoqq2D-22" style="edgeStyle=orthogonalEdgeStyle;rounded=0;orthogonalLoop=1;jettySize=auto;html=1;exitX=1;exitY=0.75;exitDx=0;exitDy=0;exitPerimeter=0;" parent="1" source="MoGKAQLPMniDsz_H17lD-5" target="MoGKAQLPMniDsz_H17lD-6" edge="1">
          <mxGeometry relative="1" as="geometry">
            <mxPoint x="890" y="610" as="targetPoint" />
            <Array as="points">
              <mxPoint x="750" y="210" />
              <mxPoint x="750" y="600" />
            </Array>
          </mxGeometry>
        </mxCell>
        <mxCell id="KuVBhjNUDmHwjBpoqq2D-34" value="Envia CRUD,&lt;br&gt;REST, HTTP (JSON)" style="edgeLabel;html=1;align=center;verticalAlign=middle;resizable=0;points=[];" parent="KuVBhjNUDmHwjBpoqq2D-22" vertex="1" connectable="0">
          <mxGeometry x="0.4055" relative="1" as="geometry">
            <mxPoint y="-32" as="offset" />
          </mxGeometry>
        </mxCell>
        <mxCell id="KuVBhjNUDmHwjBpoqq2D-24" style="edgeStyle=orthogonalEdgeStyle;rounded=0;orthogonalLoop=1;jettySize=auto;html=1;entryX=0.412;entryY=1;entryDx=0;entryDy=0;entryPerimeter=0;" parent="1" target="MoGKAQLPMniDsz_H17lD-8" edge="1">
          <mxGeometry relative="1" as="geometry">
            <mxPoint x="1151" y="600" as="sourcePoint" />
            <mxPoint x="1321" y="600" as="targetPoint" />
          </mxGeometry>
        </mxCell>
        <mxCell id="KuVBhjNUDmHwjBpoqq2D-37" value="&lt;span style=&quot;color: rgb(13, 13, 13); font-family: Söhne, ui-sans-serif, system-ui, -apple-system, &amp;quot;Segoe UI&amp;quot;, Roboto, Ubuntu, Cantarell, &amp;quot;Noto Sans&amp;quot;, sans-serif, &amp;quot;Helvetica Neue&amp;quot;, Arial, &amp;quot;Apple Color Emoji&amp;quot;, &amp;quot;Segoe UI Emoji&amp;quot;, &amp;quot;Segoe UI Symbol&amp;quot;, &amp;quot;Noto Color Emoji&amp;quot;; font-size: 16px; text-align: start; white-space: pre-wrap;&quot;&gt;&lt;br&gt;&lt;/span&gt;" style="edgeLabel;html=1;align=center;verticalAlign=middle;resizable=0;points=[];shadow=1;" parent="KuVBhjNUDmHwjBpoqq2D-24" vertex="1" connectable="0">
          <mxGeometry x="0.0182" y="-1" relative="1" as="geometry">
            <mxPoint x="-13" as="offset" />
          </mxGeometry>
        </mxCell>
        <mxCell id="KuVBhjNUDmHwjBpoqq2D-40" value="&lt;span style=&quot;color: rgba(0, 0, 0, 0); font-family: monospace; font-size: 0px; text-align: start; background-color: rgb(251, 251, 251);&quot;&gt;%3CmxGraphModel%3E%3Croot%3E%3CmxCell%20id%3D%220%22%2F%3E%3CmxCell%20id%3D%221%22%20parent%3D%220%22%2F%3E%3CmxCell%20id%3D%222%22%20value%3D%22Envia%20Token%2C%20%26lt%3Bbr%26gt%3BREST%2CHTTP%20(JSON)%22%20style%3D%22edgeLabel%3Bhtml%3D1%3Balign%3Dcenter%3BverticalAlign%3Dmiddle%3Bresizable%3D0%3Bpoints%3D%5B%5D%3B%22%20vertex%3D%221%22%20connectable%3D%220%22%20parent%3D%221%22%3E%3CmxGeometry%20x%3D%221255.6666666666665%22%20y%3D%22302.0666666666666%22%20as%3D%22geometry%22%2F%3E%3C%2FmxCell%3E%3C%2Froot%3E%3C%2FmxGraphModel%3E&lt;/span&gt;" style="edgeLabel;html=1;align=center;verticalAlign=middle;resizable=0;points=[];" parent="KuVBhjNUDmHwjBpoqq2D-24" vertex="1" connectable="0">
          <mxGeometry x="-0.3541" y="1" relative="1" as="geometry">
            <mxPoint as="offset" />
          </mxGeometry>
        </mxCell>
        <mxCell id="KuVBhjNUDmHwjBpoqq2D-43" value="Envia evento das operações&lt;br&gt;Kafka-protocol&lt;br&gt;&lt;span style=&quot;color: rgb(13, 13, 13); font-family: Söhne, ui-sans-serif, system-ui, -apple-system, &amp;quot;Segoe UI&amp;quot;, Roboto, Ubuntu, Cantarell, &amp;quot;Noto Sans&amp;quot;, sans-serif, &amp;quot;Helvetica Neue&amp;quot;, Arial, &amp;quot;Apple Color Emoji&amp;quot;, &amp;quot;Segoe UI Emoji&amp;quot;, &amp;quot;Segoe UI Symbol&amp;quot;, &amp;quot;Noto Color Emoji&amp;quot;; text-align: start; white-space: pre-wrap;&quot;&gt;&lt;font style=&quot;font-size: 12px;&quot;&gt;publishing&lt;/font&gt;&lt;/span&gt;" style="edgeLabel;html=1;align=center;verticalAlign=middle;resizable=0;points=[];" parent="KuVBhjNUDmHwjBpoqq2D-24" vertex="1" connectable="0">
          <mxGeometry x="-0.2319" y="1" relative="1" as="geometry">
            <mxPoint x="35" as="offset" />
          </mxGeometry>
        </mxCell>
        <mxCell id="KuVBhjNUDmHwjBpoqq2D-27" style="edgeStyle=orthogonalEdgeStyle;rounded=0;orthogonalLoop=1;jettySize=auto;html=1;entryX=0.998;entryY=0.608;entryDx=0;entryDy=0;entryPerimeter=0;" parent="1" source="MoGKAQLPMniDsz_H17lD-11" target="MoGKAQLPMniDsz_H17lD-9" edge="1">
          <mxGeometry relative="1" as="geometry">
            <Array as="points">
              <mxPoint x="1460" y="1093" />
            </Array>
          </mxGeometry>
        </mxCell>
        <mxCell id="KuVBhjNUDmHwjBpoqq2D-50" value="Spring-data" style="edgeLabel;html=1;align=center;verticalAlign=middle;resizable=0;points=[];" parent="KuVBhjNUDmHwjBpoqq2D-27" vertex="1" connectable="0">
          <mxGeometry x="0.2295" y="-2" relative="1" as="geometry">
            <mxPoint as="offset" />
          </mxGeometry>
        </mxCell>
        <mxCell id="KuVBhjNUDmHwjBpoqq2D-28" style="edgeStyle=orthogonalEdgeStyle;rounded=0;orthogonalLoop=1;jettySize=auto;html=1;entryX=0.865;entryY=-0.022;entryDx=0;entryDy=0;entryPerimeter=0;" parent="1" source="MoGKAQLPMniDsz_H17lD-10" target="MoGKAQLPMniDsz_H17lD-9" edge="1">
          <mxGeometry relative="1" as="geometry" />
        </mxCell>
        <mxCell id="KuVBhjNUDmHwjBpoqq2D-49" value="Spring-data" style="edgeLabel;html=1;align=center;verticalAlign=middle;resizable=0;points=[];" parent="KuVBhjNUDmHwjBpoqq2D-28" vertex="1" connectable="0">
          <mxGeometry x="-0.0276" y="1" relative="1" as="geometry">
            <mxPoint x="23" y="-21" as="offset" />
          </mxGeometry>
        </mxCell>
        <mxCell id="KuVBhjNUDmHwjBpoqq2D-29" style="edgeStyle=orthogonalEdgeStyle;rounded=0;orthogonalLoop=1;jettySize=auto;html=1;entryX=0.271;entryY=-0.046;entryDx=0;entryDy=0;entryPerimeter=0;" parent="1" source="MoGKAQLPMniDsz_H17lD-6" target="MoGKAQLPMniDsz_H17lD-9" edge="1">
          <mxGeometry relative="1" as="geometry">
            <mxPoint x="1030" y="670" as="sourcePoint" />
            <Array as="points">
              <mxPoint x="1030" y="770" />
              <mxPoint x="955" y="770" />
            </Array>
          </mxGeometry>
        </mxCell>
        <mxCell id="KuVBhjNUDmHwjBpoqq2D-48" value="Spring-data" style="edgeLabel;html=1;align=center;verticalAlign=middle;resizable=0;points=[];" parent="KuVBhjNUDmHwjBpoqq2D-29" vertex="1" connectable="0">
          <mxGeometry x="0.4697" y="2" relative="1" as="geometry">
            <mxPoint as="offset" />
          </mxGeometry>
        </mxCell>
        <mxCell id="KuVBhjNUDmHwjBpoqq2D-36" value="&lt;h1 style=&quot;margin-top: 0px;&quot;&gt;Kafka-Protocol&lt;/h1&gt;&lt;p&gt;&lt;span style=&quot;color: rgb(13, 13, 13); font-family: Söhne, ui-sans-serif, system-ui, -apple-system, &amp;quot;Segoe UI&amp;quot;, Roboto, Ubuntu, Cantarell, &amp;quot;Noto Sans&amp;quot;, sans-serif, &amp;quot;Helvetica Neue&amp;quot;, Arial, &amp;quot;Apple Color Emoji&amp;quot;, &amp;quot;Segoe UI Emoji&amp;quot;, &amp;quot;Segoe UI Symbol&amp;quot;, &amp;quot;Noto Color Emoji&amp;quot;; white-space-collapse: preserve; background-color: rgb(255, 255, 255);&quot;&gt;&lt;font style=&quot;font-size: 12px;&quot;&gt;&lt;b&gt;O protocolo Kafka é baseado em TCP (Transmission Control Protocol) e é projetado para ser eficiente, escalável e tolerante a falhas. Ele permite que os produtores publiquem mensagens em tópicos específicos e que os consumidores se inscrevam nesses tópicos para receber e processar as mensagens.&lt;/b&gt;&lt;/font&gt;&lt;/span&gt;&lt;br&gt;&lt;/p&gt;" style="text;html=1;whiteSpace=wrap;overflow=hidden;rounded=0;" parent="1" vertex="1">
          <mxGeometry x="380" y="660" width="300" height="190" as="geometry" />
        </mxCell>
        <mxCell id="KuVBhjNUDmHwjBpoqq2D-38" value="&lt;span style=&quot;color: rgba(0, 0, 0, 0); font-family: monospace; font-size: 0px; text-align: start;&quot;&gt;%3CmxGraphModel%3E%3Croot%3E%3CmxCell%20id%3D%220%22%2F%3E%3CmxCell%20id%3D%221%22%20parent%3D%220%22%2F%3E%3CmxCell%20id%3D%222%22%20value%3D%22Envia%20Token%2C%20%26lt%3Bbr%26gt%3BREST%2CHTTP%20(JSON)%22%20style%3D%22edgeLabel%3Bhtml%3D1%3Balign%3Dcenter%3BverticalAlign%3Dmiddle%3Bresizable%3D0%3Bpoints%3D%5B%5D%3B%22%20vertex%3D%221%22%20connectable%3D%220%22%20parent%3D%221%22%3E%3CmxGeometry%20x%3D%221255.6666666666665%22%20y%3D%22302.0666666666666%22%20as%3D%22geometry%22%2F%3E%3C%2FmxCell%3E%3C%2Froot%3E%3C%2FmxGraphModel%3E&lt;/span&gt;" style="text;html=1;align=center;verticalAlign=middle;resizable=0;points=[];autosize=1;strokeColor=none;fillColor=none;" parent="1" vertex="1">
          <mxGeometry x="1280" y="585" width="20" height="30" as="geometry" />
        </mxCell>
      </root>
    </mxGraphModel>
  </diagram>
</mxfile>
